<svg xmlns="http://www.w3.org/2000/svg" width="137" height="137" viewBox="0 0 137 137">
  <path fill="#FF6200" fill-rule="evenodd" d="M68.5,137 C30.67,137 0,106.33 0,68.5 C0,30.67 30.67,0 68.5,0 C106.33,0 137,30.67 137,68.5 C137,106.33 106.33,137 68.5,137 L68.5,137 L68.5,137 Z M68.5,2.05 C31.8,2.05 2.05,31.8 2.05,68.5 C2.05,105.2 31.8,134.94 68.5,134.94 C105.2,134.94 134.94,105.2 134.94,68.5 C134.94,31.8 105.2,2.05 68.5,2.05 L68.5,2.05 L68.5,2.05 Z M62.36,92.8328139 C61.45,93.7428139 60.11,93.9528139 59,93.4628139 L59,43.2528139 C60.11,42.7728139 61.45,42.9728139 62.36,43.8828139 L84.69,66.2128139 C85.87,67.4028139 85.87,69.3228139 84.69,70.5028139 L62.36,92.8328139 L62.36,92.8328139 L62.36,92.8328139 Z"/>
</svg>
