<?xml version="1.0" encoding="utf-8"?>
<svg xmlns="http://www.w3.org/2000/svg"
	xmlns:xlink="http://www.w3.org/1999/xlink"
	width="573px" height="436px" viewBox="0 0 573 436">
<path fillRule="evenodd" d="M 527.36 56.45C 377.58 234.23 193.44 361.99-0 435.48-0 435.48-0 327.14-0 327.14 191.89 269.59 378.1 159.2 534.95-0 534.95-0 572.37-0 572.37-0 557.95 19.07 542.98 37.91 527.36 56.45ZM-0 237.34C-0 237.34-0 129.03-0 129.03 130.13 113.34 261.23 69.79 384.02-0 384.02-0 485.09-0 485.09-0 338.3 123.63 169.74 203.92-0 237.34Z" fill="rgb(203,205,217)" opacity="0.20"/></svg>