<?xml version="1.0" encoding="utf-8"?>
<svg xmlns="http://www.w3.org/2000/svg"
	xmlns:xlink="http://www.w3.org/1999/xlink"
	width="1844px" height="1155px" viewBox="0 0 1844 1155">
<path fillRule="evenodd" d="M 59.14-0C 555.96 551.59 1213.45 856.06 1844 881.65 1844 881.65 1844 1154.31 1844 1154.31 1238.95 1082.98 624.49 760.11 163.81 213.3 105.35 143.92 50.87 72.7 0.36-0 0.36-0 59.14-0 59.14-0ZM 1844 623.42C 1269.71 683.2 639.63 464.43 147.74-0 147.74-0 314.83-0 314.83-0 792.05 320.95 1346.39 444.82 1844 349.01 1844 349.01 1844 623.42 1844 623.42Z" fill="rgb(203,205,217)" opacity="0.30"/></svg>